<svg xmlns="http://www.w3.org/2000/svg" xml:space="preserve" version="1.1" style="shape-rendering:geometricPrecision; text-rendering:geometricPrecision; image-rendering:optimizeQuality; fill-rule:evenodd; clip-rule:evenodd"
viewBox="0 0 10996 9372">
 <defs>
  <style type="text/css">
   <![CDATA[
    .fil0 {fill:#163E73}
    .fil1 {fill:#163E73;fill-rule:nonzero}
   ]]>
  </style>
 </defs>
 <g id="Слой_x0020_1">
  <metadata id="CorelCorpID_0Corel-Layer"/>
  <g id="_914821746144">
   <g>
    <path class="fil0" d="M84 4481c519,629 1232,1042 2042,1150 -26,26 -47,65 -67,89 -620,53 -1179,-79 -1711,-404 -109,-265 -207,-547 -264,-835z"/>
    <path class="fil0" d="M2360 5377c-34,30 -89,85 -114,116 -949,-199 -1729,-779 -2234,-1604 -37,-519 11,-1033 149,-1536 191,1325 992,2437 2199,3024z"/>
    <path class="fil0" d="M2744 5075c-77,51 -193,127 -270,197 -1267,-797 -1968,-2087 -2069,-3566 394,-771 739,-1180 1380,-1706 -861,1914 -268,3912 959,5075z"/>
    <path class="fil0" d="M3724 921c970,620 2323,2375 1691,3955 -504,1260 -1533,1578 -1887,1802 -354,225 -1048,854 -791,1828 -743,-318 -993,-1081 -750,-1773 541,-1540 1762,-1313 2109,-3374 156,-929 -175,-2058 -372,-2438z"/>
    <path class="fil0" d="M504 5662c464,252 952,325 1464,195 -15,23 -49,88 -65,111 -359,182 -736,187 -1134,120 -104,-148 -165,-265 -265,-426z"/>
    <path class="fil0" d="M926 6311c296,48 626,-27 891,-177l-44 117c-167,190 -437,260 -661,270 -81,-64 -127,-143 -186,-210z"/>
   </g>
   <g>
    <path class="fil1" d="M10186 9356c506,0 810,-294 810,-836l0 -275 0 -79 0 -694 -338 0 0 1035c-6,302 -51,547 -469,547 -299,0 -471,-165 -471,-547l0 -1035 -344 0 0 1048c0,542 304,836 812,836z"/>
    <path class="fil1" d="M8990 7765l0 -293c-459,0 -917,0 -1376,0l0 1884 350 0 0 -721 910 0 0 -296 -910 0 0 -574c342,0 684,0 1026,0z"/>
    <path class="fil1" d="M4832 7488l0 1254 -1013 -1244 -104 399 1175 1443 283 0 0 -1852 -341 0zm-1013 10l-9 -10 -283 0 0 1852 292 0 0 -1842z"/>
    <path class="fil0" d="M6560 9372c269,0 504,-81 677,-233l-150 -291c-139,149 -310,221 -508,221 -393,0 -678,-272 -678,-655 0,-383 285,-655 678,-655 198,0 367,70 506,216l149 -288c-171,-149 -406,-231 -671,-231 -584,-1 -1018,402 -1018,958 0,556 434,958 1015,958z"/>
   </g>
  </g>
 </g>
</svg>